<svg xmlns="http://www.w3.org/2000/svg" viewBox="0 8 250 185" width="250" height="185" role="img" aria-label="Full clique: every device linked to every other"><line x1="125.0" y1="30.0" x2="179.7" y2="56.4" stroke="#8a97a6" stroke-width="1.6"/><line x1="125.0" y1="30.0" x2="193.2" y2="115.6" stroke="#8a97a6" stroke-width="1.6"/><line x1="125.0" y1="30.0" x2="155.4" y2="163.1" stroke="#8a97a6" stroke-width="1.6"/><line x1="125.0" y1="30.0" x2="94.6" y2="163.1" stroke="#8a97a6" stroke-width="1.6"/><line x1="125.0" y1="30.0" x2="56.8" y2="115.6" stroke="#8a97a6" stroke-width="1.6"/><line x1="125.0" y1="30.0" x2="70.3" y2="56.4" stroke="#8a97a6" stroke-width="1.6"/><line x1="179.7" y1="56.4" x2="193.2" y2="115.6" stroke="#8a97a6" stroke-width="1.6"/><line x1="179.7" y1="56.4" x2="155.4" y2="163.1" stroke="#8a97a6" stroke-width="1.6"/><line x1="179.7" y1="56.4" x2="94.6" y2="163.1" stroke="#8a97a6" stroke-width="1.6"/><line x1="179.7" y1="56.4" x2="56.8" y2="115.6" stroke="#8a97a6" stroke-width="1.6"/><line x1="179.7" y1="56.4" x2="70.3" y2="56.4" stroke="#8a97a6" stroke-width="1.6"/><line x1="193.2" y1="115.6" x2="155.4" y2="163.1" stroke="#8a97a6" stroke-width="1.6"/><line x1="193.2" y1="115.6" x2="94.6" y2="163.1" stroke="#8a97a6" stroke-width="1.6"/><line x1="193.2" y1="115.6" x2="56.8" y2="115.6" stroke="#8a97a6" stroke-width="1.6"/><line x1="193.2" y1="115.6" x2="70.3" y2="56.4" stroke="#8a97a6" stroke-width="1.6"/><line x1="155.4" y1="163.1" x2="94.6" y2="163.1" stroke="#8a97a6" stroke-width="1.6"/><line x1="155.4" y1="163.1" x2="56.8" y2="115.6" stroke="#8a97a6" stroke-width="1.6"/><line x1="155.4" y1="163.1" x2="70.3" y2="56.4" stroke="#8a97a6" stroke-width="1.6"/><line x1="94.6" y1="163.1" x2="56.8" y2="115.6" stroke="#8a97a6" stroke-width="1.6"/><line x1="94.6" y1="163.1" x2="70.3" y2="56.4" stroke="#8a97a6" stroke-width="1.6"/><line x1="56.8" y1="115.6" x2="70.3" y2="56.4" stroke="#8a97a6" stroke-width="1.6"/><circle cx="125.0" cy="30.0" r="7" fill="#dfe7f2" stroke="#3f5573" stroke-width="1.5"/><circle cx="179.7" cy="56.4" r="7" fill="#dfe7f2" stroke="#3f5573" stroke-width="1.5"/><circle cx="193.2" cy="115.6" r="7" fill="#dfe7f2" stroke="#3f5573" stroke-width="1.5"/><circle cx="155.4" cy="163.1" r="7" fill="#dfe7f2" stroke="#3f5573" stroke-width="1.5"/><circle cx="94.6" cy="163.1" r="7" fill="#dfe7f2" stroke="#3f5573" stroke-width="1.5"/><circle cx="56.8" cy="115.6" r="7" fill="#dfe7f2" stroke="#3f5573" stroke-width="1.5"/><circle cx="70.3" cy="56.4" r="7" fill="#dfe7f2" stroke="#3f5573" stroke-width="1.5"/></svg>