<svg id="logo-svg" width="400" height="112" viewBox="0 0 400 112" fill="none" xmlns="http://www.w3.org/2000/svg">
<path d="M176.086 79.7732L173.029 72.1649H153.094L149.974 79.7732H138L157.871 34H168.252L187.996 79.7732H176.086ZM156.725 63.1959H169.399L163.094 47.4845L156.725 63.1959Z" fill="#FFFFFF"></path>
<path d="M201.015 50.1443C203.754 47.1753 208.021 45.4433 213.18 45.4433L212.479 55.0928C205.855 55.0928 201.206 58.0619 201.206 62.4536V79.7732H190.379V46.0619H200.824L201.015 50.1443Z" fill="#FFFFFF"></path>
<path d="M230.04 45.4433C239.212 45.4433 245.39 50.6392 245.39 58.6186V79.7732H234.945L234.817 75.9381C232.524 78.8454 229.021 80.3918 225.391 80.3918C218.003 80.3918 213.099 76.0619 213.099 69.567C213.099 62.9485 219.086 58.5567 228.13 58.5567C230.104 58.5567 232.333 58.7423 234.562 59.1753C234.435 55.5876 231.824 53.6701 227.238 53.6701C224.308 53.6701 221.952 54.4124 219.85 55.8351L215.265 49.6495C219.213 46.866 223.735 45.4433 230.04 45.4433ZM228.512 72.9072C231.76 72.9072 234.499 70.433 234.562 66.2268C232.779 65.9175 231.059 65.732 229.531 65.732C226.346 65.732 224.308 67.2165 224.308 69.3814C224.308 71.5464 225.582 72.9072 228.512 72.9072Z" fill="#FFFFFF"></path>
<path d="M271.621 45.4433C279.773 45.4433 285.187 50.701 285.187 58.6186V79.7732H274.36V60.2268C274.36 56.701 271.748 54.4124 267.8 54.4124C263.787 54.4124 261.176 56.701 261.176 60.2268V79.7732H250.349V46.0619H260.794L260.921 49.8351C263.66 46.866 267.545 45.4433 271.621 45.4433Z" fill="#FFFFFF"></path>
<path d="M296.208 94C294.042 94 291.94 93.6289 290.539 92.9485L291.622 84.4742C292.386 84.8454 293.342 85.0309 294.424 85.0309C297.099 85.0309 298.246 83.3608 299.583 80.9485L300.602 78.8454L286.145 46.0619H297.991L306.143 67.5258L313.595 46.0619H325.377L310.156 82.2474C307.098 89.5464 303.723 94 296.208 94Z" fill="#FFFFFF"></path>
<path d="M341.651 45.4433C350.822 45.4433 357 50.6392 357 58.6186V79.7732H346.555L346.428 75.9381C344.135 78.8454 340.632 80.3918 337.002 80.3918C329.614 80.3918 324.71 76.0619 324.71 69.567C324.71 62.9485 330.696 58.5567 339.74 58.5567C341.715 58.5567 343.944 58.7423 346.173 59.1753C346.045 55.5876 343.434 53.6701 338.849 53.6701C335.919 53.6701 333.562 54.4124 331.461 55.8351L326.875 49.6495C330.824 46.866 335.346 45.4433 341.651 45.4433ZM340.122 72.9072C343.37 72.9072 346.109 70.433 346.173 66.2268C344.39 65.9175 342.67 65.732 341.141 65.732C337.957 65.732 335.919 67.2165 335.919 69.3814C335.919 71.5464 337.193 72.9072 340.122 72.9072Z" fill="#FFFFFF"></path>
<path fill-rule="evenodd" clip-rule="evenodd" d="M99.7421 57.4559L104.054 53.1444H110.257C115.562 53.1444 119.864 48.8433 119.864 43.5376C119.864 38.232 115.562 33.9309 110.257 33.9309H100.533C98.314 33.9309 96.2707 34.6832 94.6442 35.9467C94.1937 36.2616 93.7643 36.6201 93.3621 37.0222L89.9277 40.4567L99.7421 57.4559ZM82.2837 33.0262L98.1542 60.5147C98.2786 60.928 98.0803 61.1386 97.7044 61.2815C97.3133 61.4302 97.3549 61.8203 97.7734 61.8203L98.9081 61.8203L98.9084 61.8206H101.548C107.025 61.8206 111.465 66.2605 111.465 71.7373C111.465 77.2141 107.025 81.654 101.548 81.654H94.0252C92.9466 81.654 91.9081 81.4818 90.9359 81.1633C88.4383 80.5477 86.1855 78.9549 84.7977 76.5513L75.6469 60.7016C75.1358 59.6188 74.8777 58.2888 74.804 57.0619C74.7782 56.6322 73.8971 56.3722 73.6905 56.7498L72.9509 58.1018C72.9554 58.1094 72.9598 58.117 72.9642 58.1245L66.0499 70.1005C63.4064 74.6792 57.6237 76.3155 52.99 73.8604C51.0686 73.0643 49.3847 71.6524 48.2644 69.7121L43.172 60.8917C43.2532 60.4651 43.5878 60.2253 44.0354 60.0602C44.428 59.9154 44.383 59.5111 43.9645 59.5111H42.3749L42.3747 59.5108H39.1102C33.8045 59.5108 29.5034 55.2097 29.5034 49.904C29.5034 44.5984 33.8045 40.2972 39.1102 40.2972H47.2307C47.5523 40.2972 47.8701 40.313 48.1835 40.3439C51.5954 40.3166 54.9239 42.0758 56.7517 45.2416L56.8397 45.3939C56.8389 45.3952 56.8381 45.3965 56.8373 45.3977L57.5278 46.6637C57.7316 47.0373 58.47 46.8058 58.4736 46.3803C58.4842 45.12 58.6982 43.742 59.3164 42.6086C59.3113 42.612 59.3062 42.6154 59.3011 42.6188L64.7689 33.1482C66.4221 30.2849 69.3028 28.5722 72.3626 28.2913C76.2124 27.7074 80.2003 29.4682 82.2837 33.0262Z" fill="url(#paint0_linear_2066_158)"></path>
<defs>
<linearGradient id="paint0_linear_2066_158" x1="79.5" y1="41" x2="52.3375" y2="104" gradientUnits="userSpaceOnUse">
<stop stop-color="#356AE6"></stop>
<stop offset="1" stop-color="#4B12ED"></stop>
</linearGradient>
</defs>
</svg>
